# xmcd CD database file
#
# Track frame offsets:
#	150
#	19667
#	40380
#	51980
#	75167
#	88432
#	108320
#	122762
#	132670
#	154230
#	167762
#	191255
#
# Disc length: 2840 seconds
#
# Revision: 1
# Processed by: cddbd v1.5.1PL0 Copyright (c) Steve Scherf et al.
# Submitted via: CDex 1.51
#
DISCID=9c0b160c
DTITLE=Coyne, Kevin and The Paradise Band - Wild Tiger Love
DYEAR=1992
DGENRE=Indie
TTITLE0=The Bungalow Song
TTITLE1=Sensual
TTITLE2=Cafe Crazy
TTITLE3=Looking In Your Eyes
TTITLE4=Open Up the Gates
TTITLE5=Go, Sally, Go
TTITLE6=American Girls
TTITLE7=Fish Brain
TTITLE8=Fooled Again
TTITLE9=Don´t You Look (That Way)
TTITLE10=Raindrops On The Window
TTITLE11=Passion´s Pleasure
EXTD=YEAR: 1992
EXTT0=
EXTT1=
EXTT2=
EXTT3=
EXTT4=
EXTT5=
EXTT6=
EXTT7=
EXTT8=
EXTT9=
EXTT10=
EXTT11=
PLAYORDER=
